<?xml version="1.0" encoding="utf-8"?>
<!-- Generator: Adobe Illustrator 21.0.2, SVG Export Plug-In . SVG Version: 6.00 Build 0)  -->
<svg version="1.1" id="Layer_1" xmlns="http://www.w3.org/2000/svg" xmlns:xlink="http://www.w3.org/1999/xlink" x="0px" y="0px"
	 viewBox="0 0 106.1 23.9" style="enable-background:new 0 0 106.1 23.9;" xml:space="preserve">
<style type="text/css">
	.st0{fill:#3A3293;}
	.st1{clip-path:url(#SVGID_2_);fill:none;stroke:#F2634B;stroke-width:5;stroke-miterlimit:10;}
	.st2{clip-path:url(#SVGID_4_);fill:none;stroke:#F2634B;stroke-width:5;stroke-miterlimit:10;}
	.st3{clip-path:url(#SVGID_6_);fill:none;stroke:#F2634B;stroke-width:5;stroke-miterlimit:10;}
	.st4{clip-path:url(#SVGID_8_);fill:none;stroke:#F2634B;stroke-width:5;stroke-miterlimit:10;}
	.st5{clip-path:url(#SVGID_10_);fill:none;stroke:#F2634B;stroke-width:5;stroke-miterlimit:10;}
	.st6{clip-path:url(#SVGID_12_);fill:none;stroke:#F2634B;stroke-width:5;stroke-miterlimit:10;}
</style>
<title>Asset 4</title>
<g>
	<path class="st0" d="M8.7,12c0,5.2-3.6,9.6-8.7,10.6c5.9,3.1,13.1,0.8,16.2-5.1c3-5.8,0.8-13.1-5.1-16.1C7.6-0.4,3.5-0.4,0,1.3
		C5,2.4,8.6,6.8,8.7,12z"/>
	<ellipse class="st0" cx="57.4" cy="11.9" rx="48.7" ry="10.8"/>
	<g>
		<g>
			<defs>
				<ellipse id="SVGID_1_" cx="57.1" cy="11.9" rx="48.7" ry="10.8"/>
			</defs>
			<clipPath id="SVGID_2_">
				<use xlink:href="#SVGID_1_"  style="overflow:visible;"/>
			</clipPath>
			<line class="st1" x1="52.5" y1="10" x2="38.4" y2="26"/>
		</g>
		<g>
			<defs>
				<ellipse id="SVGID_3_" cx="57.1" cy="11.9" rx="48.7" ry="10.8"/>
			</defs>
			<clipPath id="SVGID_4_">
				<use xlink:href="#SVGID_3_"  style="overflow:visible;"/>
			</clipPath>
			<line class="st2" x1="52.4" y1="13.2" x2="37.4" y2="-0.1"/>
		</g>
		<g>
			<defs>
				<ellipse id="SVGID_5_" cx="57.1" cy="11.9" rx="48.7" ry="10.8"/>
			</defs>
			<clipPath id="SVGID_6_">
				<use xlink:href="#SVGID_5_"  style="overflow:visible;"/>
			</clipPath>
			<line class="st3" x1="64.6" y1="10" x2="50.6" y2="26"/>
		</g>
		<g>
			<defs>
				<ellipse id="SVGID_7_" cx="57.1" cy="11.9" rx="48.7" ry="10.8"/>
			</defs>
			<clipPath id="SVGID_8_">
				<use xlink:href="#SVGID_7_"  style="overflow:visible;"/>
			</clipPath>
			<line class="st4" x1="64.6" y1="13.3" x2="48.2" y2="-1.2"/>
		</g>
		<g>
			<defs>
				<ellipse id="SVGID_9_" cx="57.1" cy="11.9" rx="48.7" ry="10.8"/>
			</defs>
			<clipPath id="SVGID_10_">
				<use xlink:href="#SVGID_9_"  style="overflow:visible;"/>
			</clipPath>
			<line class="st5" x1="77.2" y1="10.1" x2="63.2" y2="26.1"/>
		</g>
		<g>
			<defs>
				<ellipse id="SVGID_11_" cx="57.1" cy="11.9" rx="48.7" ry="10.8"/>
			</defs>
			<clipPath id="SVGID_12_">
				<use xlink:href="#SVGID_11_"  style="overflow:visible;"/>
			</clipPath>
			<line class="st6" x1="77.2" y1="13.4" x2="61.2" y2="-0.8"/>
		</g>
	</g>
</g>
</svg>
