<svg xmlns="http://www.w3.org/2000/svg" viewBox="0 0 95.73 106.25"><defs><style>.cls-1{fill:#3a3393;}.cls-1,.cls-2,.cls-3,.cls-6{fill-rule:evenodd;}.cls-2,.cls-5{fill:#f2644c;}.cls-3,.cls-4{fill:#c5cae7;}.cls-6{fill:#4555a5;}</style></defs><title>Logo Color</title><g id="Layer_2" data-name="Layer 2"><g id="Camada_1" data-name="Camada 1"><path class="cls-1" d="M12,97.5a10.85,10.85,0,0,1,10.63,8.69,12,12,0,1,0-21.26,0A10.85,10.85,0,0,1,12,97.5Z"/><path class="cls-2" d="M12,33.77l10.77,10c-.05-2.39-.15-4.73-.28-7L12,27,1.53,36.73q-.19,3.41-.28,7Z"/><path class="cls-2" d="M22.85,49.78,12,39.74,1.2,49.75q0,3.37.13,6.62L12,46.49l10.7,9.92Q22.83,53.16,22.85,49.78Z"/><path class="cls-1" d="M22.72,56.41,12,46.49,1.33,56.38q.1,2.92.28,5.72L12,52.46l10.42,9.66Q22.62,59.33,22.72,56.41Z"/><path class="cls-2" d="M22.44,62.12,12,52.46,1.61,62.09c.14,2.16.3,4.26.5,6.28L12,59.2l9.92,9.19C22.14,66.38,22.31,64.28,22.44,62.12Z"/><path class="cls-1" d="M21.94,68.4,12,59.2,2.11,68.37C3,77.32,4.44,84.86,6.26,90a12,12,0,0,1,11.53,0C19.61,84.87,21.06,77.34,21.94,68.4Z"/><path class="cls-1" d="M12,39.74l10.83,10q0-.5,0-1,0-2.54-.06-5L12,33.77l-10.77,10q-.06,2.49-.06,5.05,0,.49,0,1Z"/><path class="cls-1" d="M12,27l10.5,9.73C21.33,15.66,17.08.05,12,.05S2.72,15.64,1.53,36.73Z"/><path class="cls-3" d="M83.7,97.55a10.85,10.85,0,0,1,10.63,8.69,12,12,0,1,0-21.26,0A10.85,10.85,0,0,1,83.7,97.55Z"/><ellipse class="cls-4" cx="83.7" cy="48.83" rx="10.83" ry="48.73"/><path class="cls-2" d="M59.89,5.61A12,12,0,0,0,58.49,0,10.85,10.85,0,0,1,47.87,8.69,10.85,10.85,0,0,1,37.23,0,12,12,0,1,0,59.89,5.61Z"/><ellipse class="cls-5" cx="47.87" cy="57.42" rx="10.83" ry="48.73"/><path class="cls-6" d="M58,39.71a17.3,17.3,0,0,0-7.72-3.39,15.16,15.16,0,0,0-4.75,0,17.29,17.29,0,0,0-7.72,3.39c-.21,2.37-.37,4.84-.49,7.37a15.38,15.38,0,0,1,9-5.46,10.27,10.27,0,0,1,3.22,0,15.38,15.38,0,0,1,9,5.46C58.33,44.55,58.16,42.09,58,39.71Z"/><path class="cls-6" d="M58.66,53.68a17.63,17.63,0,0,0-8.42-3.95,15.15,15.15,0,0,0-4.75,0,17.63,17.63,0,0,0-8.42,3.95q0,1.85,0,3.74,0,1.68,0,3.34A15.56,15.56,0,0,1,46.25,55a10.27,10.27,0,0,1,3.22,0,15.55,15.55,0,0,1,9.19,5.71q0-1.65,0-3.34Q58.69,55.53,58.66,53.68Z"/><path class="cls-6" d="M58.49,66.93a17.54,17.54,0,0,0-8.25-3.81,15.15,15.15,0,0,0-4.75,0,17.54,17.54,0,0,0-8.25,3.81c.1,2.25.23,4.44.4,6.56a15.1,15.1,0,0,1,8.61-5.06,10.28,10.28,0,0,1,3.22,0,15.1,15.1,0,0,1,8.61,5.06Q58.34,70.31,58.49,66.93Z"/><path class="cls-2" d="M42.1,16.17c-1.95,5.53-3.48,13.77-4.33,23.54a17.29,17.29,0,0,1,7.72-3.39,15.16,15.16,0,0,1,4.75,0A17.3,17.3,0,0,1,58,39.71c-.85-9.78-2.38-18-4.33-23.55C52,11.43,50,8.69,47.87,8.69S43.77,11.43,42.1,16.17Z"/><path class="cls-2" d="M46.25,41.63a15.38,15.38,0,0,0-9,5.46q-.15,3.22-.21,6.59a17.63,17.63,0,0,1,8.42-3.95,15.15,15.15,0,0,1,4.75,0,17.63,17.63,0,0,1,8.42,3.95q-.06-3.37-.21-6.59a15.38,15.38,0,0,0-9-5.46,10.27,10.27,0,0,0-3.22,0Z"/><path class="cls-2" d="M46.25,55a15.56,15.56,0,0,0-9.19,5.71q0,3.15.18,6.18a17.54,17.54,0,0,1,8.25-3.81,15.15,15.15,0,0,1,4.75,0,17.54,17.54,0,0,1,8.25,3.81q.13-3,.18-6.18A15.55,15.55,0,0,0,49.48,55a10.27,10.27,0,0,0-3.22,0Z"/><path class="cls-2" d="M46.25,68.44a15.1,15.1,0,0,0-8.61,5.06c1.48,19,5.5,32.65,10.23,32.65s8.75-13.64,10.22-32.65a15.1,15.1,0,0,0-8.61-5.06,10.28,10.28,0,0,0-3.22,0Z"/><path class="cls-2" d="M47.87,8.69c2.12,0,4.1,2.74,5.77,7.48A12,12,0,0,0,58.49,0,10.85,10.85,0,0,1,47.87,8.69Z"/><path class="cls-2" d="M35.84,5.61A12,12,0,0,0,42.1,16.17c1.67-4.74,3.65-7.48,5.77-7.48A10.85,10.85,0,0,1,37.23,0,12,12,0,0,0,35.84,5.61Z"/><path class="cls-3" d="M83.7.1c-5.87,0-10.65,21-10.82,47.26L94.1,35.22C92.79,14.93,88.63.1,83.7.1Z"/><path class="cls-2" d="M94.1,35.22,72.88,47.36q0,.73,0,1.47,0,2.09,0,4.14L94.38,40.68Q94.28,37.89,94.1,35.22Z"/><path class="cls-3" d="M94.38,40.68,72.91,53c0,2.48.13,4.91.26,7.28L94.53,48C94.52,45.52,94.47,43.07,94.38,40.68Z"/><path class="cls-2" d="M94.53,48,73.17,60.24q.15,2.77.36,5.42l20.94-12q.05-2.39.05-4.85Q94.53,48.42,94.53,48Z"/><path class="cls-3" d="M94.48,53.68l-20.94,12c.83,10.16,2.39,18.73,4.4,24.42,1.67,4.74,3.65,7.48,5.77,7.48s4.1-2.74,5.77-7.48C92.22,82.26,94.14,69,94.48,53.68Z"/><path class="cls-1" d="M21.94,68.4,12,59.2,2.11,68.37C3.78,85.53,7.59,97.5,12,97.5S20.26,85.54,21.94,68.4Z"/></g></g></svg>